<svg width="179" height="180" viewBox="0 0 179 180" fill="none" xmlns="http://www.w3.org/2000/svg">
<path fill-rule="evenodd" clip-rule="evenodd" d="M0 20C0 8.95431 8.95431 0 20 0H140C151.046 0 160 8.95431 160 20V140C160 151.046 151.046 160 140 160H20C8.95431 160 0 151.046 0 140V20ZM22.8105 101V22.2598H56.2725C64.6872 22.2598 70.7923 22.9759 74.5879 24.4082C78.4193 25.8047 81.4808 28.3112 83.7725 31.9277C86.0641 35.5443 87.21 39.68 87.21 44.335C87.21 50.2432 85.4733 55.1309 82 58.998C78.5267 62.8294 73.3346 65.2464 66.4238 66.249C69.8613 68.2542 72.6901 70.4564 74.9102 72.8555C77.166 75.2546 80.1917 79.5156 83.9873 85.6387L93.6016 101H74.5879L63.0938 83.8662C59.0117 77.7432 56.2188 73.8939 54.7148 72.3184C53.2109 70.707 51.6175 69.6149 49.9346 69.042C48.2516 68.4333 45.584 68.1289 41.9316 68.1289H38.709V101H22.8105ZM38.709 55.5605H50.4717C58.0986 55.5605 62.861 55.2383 64.7588 54.5938C66.6566 53.9492 68.1426 52.8392 69.2168 51.2637C70.291 49.6882 70.8281 47.7188 70.8281 45.3555C70.8281 42.7057 70.112 40.5752 68.6797 38.9639C67.2832 37.3167 65.2959 36.2783 62.7178 35.8486C61.4287 35.6696 57.5615 35.5801 51.1162 35.5801H38.709V55.5605ZM108.394 119.808L95.7373 121.038C96.5869 128.245 99.1943 133.738 103.56 137.518C107.925 141.268 114.18 143.143 122.324 143.143C127.92 143.143 132.593 142.366 136.343 140.813C140.093 139.231 142.993 136.829 145.044 133.606C147.095 130.384 148.12 126.927 148.12 123.235C148.12 119.163 147.256 115.75 145.527 112.996C143.828 110.213 141.455 108.03 138.408 106.448C135.391 104.837 130.718 103.284 124.39 101.79C118.062 100.296 114.077 98.8604 112.437 97.4834C111.147 96.3994 110.503 95.0957 110.503 93.5723C110.503 91.9023 111.191 90.5693 112.568 89.5732C114.707 88.0205 117.666 87.2441 121.445 87.2441C125.107 87.2441 127.847 87.9766 129.663 89.4414C131.509 90.877 132.71 93.25 133.267 96.5605L146.274 95.9893C146.069 90.0713 143.916 85.3398 139.814 81.7949C135.742 78.25 129.663 76.4775 121.577 76.4775C116.626 76.4775 112.393 77.2246 108.877 78.7188C105.391 80.2129 102.71 82.3955 100.835 85.2666C98.9893 88.1084 98.0664 91.1699 98.0664 94.4512C98.0664 99.5488 100.044 103.87 103.999 107.415C106.812 109.935 111.704 112.059 118.677 113.787C124.097 115.135 127.568 116.072 129.092 116.6C131.318 117.391 132.871 118.328 133.75 119.412C134.658 120.467 135.112 121.756 135.112 123.279C135.112 125.652 134.043 127.732 131.904 129.52C129.795 131.277 126.646 132.156 122.456 132.156C118.501 132.156 115.352 131.16 113.008 129.168C110.693 127.176 109.155 124.056 108.394 119.808Z" fill="#476BC8"/>
<path fill-rule="evenodd" clip-rule="evenodd" d="M19 164.109C21.0615 172.961 29.0002 179.555 38.4791 179.555H158.479C169.525 179.555 178.479 170.6 178.479 159.555V39.5547C178.479 31.1532 173.299 23.9617 165.958 21C166.299 22.4631 166.479 23.9878 166.479 25.5547V145.555C166.479 156.6 157.525 165.555 146.479 165.555H26.4791C23.8348 165.555 21.3104 165.042 19 164.109Z" fill="#6A65A2"/>
</svg>
